<svg width="178" height="33" viewBox="0 0 178 33" fill="none" xmlns="http://www.w3.org/2000/svg">
<rect width="178" height="33" rx="16" fill="#000E33" fill-opacity="0.4"/>
<rect x="0.5" y="0.5" width="177" height="32" rx="15.5" stroke="url(#paint0_linear_44_118)" stroke-opacity="0.2"/>
<path d="M17.263 21L17.263 11.2L20.371 11.2C21.3977 11.2 22.1583 11.4333 22.653 11.9C23.157 12.3667 23.409 12.9593 23.409 13.678C23.409 14.0607 23.3343 14.4013 23.185 14.7C23.045 14.9893 22.8583 15.2367 22.625 15.442C22.401 15.638 22.163 15.7873 21.911 15.89L21.911 15.974C22.2097 16.0673 22.4897 16.2213 22.751 16.436C23.0123 16.6413 23.2223 16.9027 23.381 17.22C23.549 17.5373 23.633 17.906 23.633 18.326C23.633 18.8113 23.5117 19.2593 23.269 19.67C23.0263 20.0713 22.6717 20.3933 22.205 20.636C21.7383 20.8787 21.1597 21 20.469 21L17.263 21ZM18.243 15.512L20.343 15.512C21.0057 15.512 21.5143 15.358 21.869 15.05C22.2237 14.742 22.401 14.3173 22.401 13.776C22.401 13.2533 22.2283 12.8427 21.883 12.544C21.5377 12.2453 21.0103 12.096 20.301 12.096L18.243 12.096L18.243 15.512ZM18.243 20.104L20.399 20.104C21.1083 20.104 21.6543 19.9407 22.037 19.614C22.429 19.278 22.625 18.8207 22.625 18.242C22.625 17.6633 22.4197 17.2107 22.009 16.884C21.6077 16.548 21.057 16.38 20.357 16.38L18.243 16.38L18.243 20.104ZM27.2395 21L27.2395 11.2L30.1375 11.2C30.8842 11.2 31.5002 11.326 31.9855 11.578C32.4709 11.8207 32.8302 12.1567 33.0635 12.586C33.3062 13.006 33.4275 13.4913 33.4275 14.042C33.4275 14.6953 33.2595 15.2647 32.9235 15.75C32.5875 16.2353 32.0695 16.5667 31.3695 16.744L33.5395 21L32.3635 21L30.3195 16.898C30.2635 16.898 30.2029 16.898 30.1375 16.898L28.2195 16.898L28.2195 21L27.2395 21ZM28.2195 15.988L30.1095 15.988C30.9122 15.988 31.4955 15.806 31.8595 15.442C32.2329 15.0687 32.4195 14.602 32.4195 14.042C32.4195 13.4447 32.2375 12.9733 31.8735 12.628C31.5189 12.2733 30.9262 12.096 30.0955 12.096L28.2195 12.096L28.2195 15.988ZM36.3341 21L39.4841 11.2L40.5901 11.2L43.7261 21L42.6481 21L41.8781 18.508L38.1821 18.508L37.4121 21L36.3341 21ZM40.0021 12.572L38.4341 17.668L41.6261 17.668L40.0581 12.572L40.0021 12.572ZM46.4646 21L46.4646 11.2L47.5286 11.2L52.2046 19.292L52.2046 11.2L53.1846 11.2L53.1846 21L52.1206 21L47.4446 12.894L47.4446 21L46.4646 21ZM56.4271 21L56.4271 11.2L58.2891 11.2C59.3811 11.2 60.2771 11.4007 60.9771 11.802C61.6771 12.194 62.1951 12.7587 62.5311 13.496C62.8765 14.224 63.0491 15.092 63.0491 16.1C63.0491 17.108 62.8765 17.9807 62.5311 18.718C62.1951 19.446 61.6771 20.0107 60.9771 20.412C60.2771 20.804 59.3811 21 58.2891 21L56.4271 21ZM57.4071 20.104L58.2891 20.104C59.2131 20.104 59.9458 19.9407 60.4871 19.614C61.0378 19.278 61.4345 18.8113 61.6771 18.214C61.9198 17.6167 62.0411 16.912 62.0411 16.1C62.0411 15.288 61.9198 14.5833 61.6771 13.986C61.4345 13.3793 61.0378 12.9127 60.4871 12.586C59.9458 12.2593 59.2131 12.096 58.2891 12.096L57.4071 12.096L57.4071 20.104ZM66.6277 21L66.6277 20.16L68.9237 20.16L68.9237 12.04L66.6277 12.04L66.6277 11.2L72.1997 11.2L72.1997 12.04L69.9037 12.04L69.9037 20.16L72.1997 20.16L72.1997 21L66.6277 21ZM75.8482 21L75.8482 11.2L76.9122 11.2L81.5882 19.292L81.5882 11.2L82.5682 11.2L82.5682 21L81.5042 21L76.8282 12.894L76.8282 21L75.8482 21ZM88.9327 21.168C88.2514 21.168 87.6447 20.9673 87.1127 20.566C86.5807 20.1647 86.1607 19.586 85.8527 18.83C85.5541 18.074 85.4047 17.164 85.4047 16.1C85.4047 15.036 85.5587 14.126 85.8667 13.37C86.1841 12.614 86.6227 12.0353 87.1827 11.634C87.7427 11.2327 88.3961 11.032 89.1427 11.032C89.7401 11.032 90.2674 11.158 90.7247 11.41C91.1914 11.6527 91.5647 11.998 91.8447 12.446C92.1341 12.8847 92.3067 13.4027 92.3627 14L91.2707 14C91.1774 13.4027 90.9487 12.9127 90.5847 12.53C90.2301 12.1473 89.7494 11.956 89.1427 11.956C88.3121 11.956 87.6494 12.32 87.1547 13.048C86.6601 13.776 86.4127 14.7933 86.4127 16.1C86.4127 16.968 86.5201 17.7147 86.7347 18.34C86.9587 18.956 87.2667 19.4273 87.6587 19.754C88.0507 20.0807 88.4987 20.244 89.0027 20.244C89.4227 20.244 89.7821 20.146 90.0807 19.95C90.3887 19.754 90.6407 19.4927 90.8367 19.166C91.0421 18.83 91.1961 18.4613 91.2987 18.06C91.4107 17.6493 91.4714 17.234 91.4807 16.814L89.1987 16.814L89.1987 15.946L92.4887 15.946L92.4887 21L91.5927 21L91.5087 19.404L91.4527 19.404C91.2567 19.9453 90.9534 20.3747 90.5427 20.692C90.1414 21.0093 89.6047 21.168 88.9327 21.168ZM105.4 21L105.4 11.2L107.262 11.2C108.354 11.2 109.25 11.4007 109.95 11.802C110.65 12.194 111.168 12.7587 111.504 13.496C111.849 14.224 112.022 15.092 112.022 16.1C112.022 17.108 111.849 17.9807 111.504 18.718C111.168 19.446 110.65 20.0107 109.95 20.412C109.25 20.804 108.354 21 107.262 21L105.4 21ZM106.38 20.104L107.262 20.104C108.186 20.104 108.918 19.9407 109.46 19.614C110.01 19.278 110.407 18.8113 110.65 18.214C110.892 17.6167 111.014 16.912 111.014 16.1C111.014 15.288 110.892 14.5833 110.65 13.986C110.407 13.3793 110.01 12.9127 109.46 12.586C108.918 12.2593 108.186 12.096 107.262 12.096L106.38 12.096L106.38 20.104ZM115.432 21L115.432 11.2L121.466 11.2L121.466 12.096L116.412 12.096L116.412 15.624L121.046 15.624L121.046 16.52L116.412 16.52L116.412 20.104L121.466 20.104L121.466 21L115.432 21ZM128.279 21.168C127.598 21.168 127.005 21.0373 126.501 20.776C125.997 20.5053 125.61 20.1367 125.339 19.67C125.068 19.2033 124.933 18.662 124.933 18.046L125.955 18.046C125.955 18.4473 126.044 18.816 126.221 19.152C126.398 19.488 126.66 19.7587 127.005 19.964C127.35 20.1693 127.775 20.272 128.279 20.272C128.988 20.272 129.53 20.0993 129.903 19.754C130.276 19.3993 130.463 18.9933 130.463 18.536C130.463 18.1627 130.384 17.85 130.225 17.598C130.076 17.3367 129.814 17.1033 129.441 16.898C129.068 16.6927 128.55 16.492 127.887 16.296C126.944 16.0067 126.258 15.6333 125.829 15.176C125.4 14.7093 125.185 14.126 125.185 13.426C125.185 12.978 125.302 12.5767 125.535 12.222C125.768 11.858 126.109 11.5687 126.557 11.354C127.014 11.1393 127.565 11.032 128.209 11.032C128.825 11.032 129.357 11.1487 129.805 11.382C130.262 11.6153 130.612 11.9373 130.855 12.348C131.107 12.7493 131.233 13.2067 131.233 13.72L130.225 13.72C130.225 13.44 130.15 13.1647 130.001 12.894C129.852 12.614 129.623 12.3853 129.315 12.208C129.016 12.0213 128.629 11.928 128.153 11.928C127.593 11.928 127.126 12.0633 126.753 12.334C126.38 12.5953 126.193 12.964 126.193 13.44C126.193 13.776 126.268 14.0607 126.417 14.294C126.566 14.5273 126.823 14.742 127.187 14.938C127.551 15.1247 128.05 15.3253 128.685 15.54C129.292 15.7453 129.8 15.974 130.211 16.226C130.631 16.4687 130.944 16.772 131.149 17.136C131.364 17.4907 131.471 17.9387 131.471 18.48C131.471 19.0027 131.331 19.4693 131.051 19.88C130.78 20.2813 130.407 20.5987 129.931 20.832C129.455 21.056 128.904 21.168 128.279 21.168ZM135.189 21L135.189 20.16L137.485 20.16L137.485 12.04L135.189 12.04L135.189 11.2L140.761 11.2L140.761 12.04L138.465 12.04L138.465 20.16L140.761 20.16L140.761 21L135.189 21ZM147.7 21.168C147.019 21.168 146.412 20.9673 145.88 20.566C145.348 20.1647 144.928 19.586 144.62 18.83C144.321 18.074 144.172 17.164 144.172 16.1C144.172 15.036 144.326 14.126 144.634 13.37C144.951 12.614 145.39 12.0353 145.95 11.634C146.51 11.2327 147.163 11.032 147.91 11.032C148.507 11.032 149.035 11.158 149.492 11.41C149.959 11.6527 150.332 11.998 150.612 12.446C150.901 12.8847 151.074 13.4027 151.13 14L150.038 14C149.945 13.4027 149.716 12.9127 149.352 12.53C148.997 12.1473 148.517 11.956 147.91 11.956C147.079 11.956 146.417 12.32 145.922 13.048C145.427 13.776 145.18 14.7933 145.18 16.1C145.18 16.968 145.287 17.7147 145.502 18.34C145.726 18.956 146.034 19.4273 146.426 19.754C146.818 20.0807 147.266 20.244 147.77 20.244C148.19 20.244 148.549 20.146 148.848 19.95C149.156 19.754 149.408 19.4927 149.604 19.166C149.809 18.83 149.963 18.4613 150.066 18.06C150.178 17.6493 150.239 17.234 150.248 16.814L147.966 16.814L147.966 15.946L151.256 15.946L151.256 21L150.36 21L150.276 19.404L150.22 19.404C150.024 19.9453 149.721 20.3747 149.31 20.692C148.909 21.0093 148.372 21.168 147.7 21.168ZM154.204 21L154.204 11.2L155.268 11.2L159.944 19.292L159.944 11.2L160.924 11.2L160.924 21L159.86 21L155.184 12.894L155.184 21L154.204 21Z" fill="white"/>
<defs>
<linearGradient id="paint0_linear_44_118" x1="-0.00232832" y1="16.501" x2="177.993" y2="16.501" gradientUnits="userSpaceOnUse">
<stop stop-color="#9403FD"/>
<stop offset="1" stop-color="#00ADFE"/>
</linearGradient>
</defs>
</svg>