<svg width="158" height="33" viewBox="0 0 158 33" fill="none" xmlns="http://www.w3.org/2000/svg">
<rect width="158" height="33" rx="16" fill="#000E33" fill-opacity="0.4"/>
<rect x="0.5" y="0.5" width="157" height="32" rx="15.5" stroke="url(#paint0_linear_141_1097)" stroke-opacity="0.2"/>
<path d="M17.0435 21L17.0435 11.2L18.9055 11.2C19.9975 11.2 20.8935 11.4007 21.5935 11.802C22.2935 12.194 22.8115 12.7587 23.1475 13.496C23.4929 14.224 23.6655 15.092 23.6655 16.1C23.6655 17.108 23.4929 17.9807 23.1475 18.718C22.8115 19.446 22.2935 20.0107 21.5935 20.412C20.8935 20.804 19.9975 21 18.9055 21L17.0435 21ZM18.0235 20.104L18.9055 20.104C19.8295 20.104 20.5622 19.9407 21.1035 19.614C21.6542 19.278 22.0509 18.8113 22.2935 18.214C22.5362 17.6167 22.6575 16.912 22.6575 16.1C22.6575 15.288 22.5362 14.5833 22.2935 13.986C22.0509 13.3793 21.6542 12.9127 21.1035 12.586C20.5622 12.2593 19.8295 12.096 18.9055 12.096L18.0235 12.096L18.0235 20.104ZM27.0761 21L27.0761 11.2L33.1101 11.2L33.1101 12.096L28.0561 12.096L28.0561 15.624L32.6901 15.624L32.6901 16.52L28.0561 16.52L28.0561 20.104L33.1101 20.104L33.1101 21L27.0761 21ZM39.9226 21.168C39.2413 21.168 38.6486 21.0373 38.1446 20.776C37.6406 20.5053 37.2533 20.1367 36.9826 19.67C36.7119 19.2033 36.5766 18.662 36.5766 18.046L37.5986 18.046C37.5986 18.4473 37.6873 18.816 37.8646 19.152C38.0419 19.488 38.3033 19.7587 38.6486 19.964C38.9939 20.1693 39.4186 20.272 39.9226 20.272C40.6319 20.272 41.1733 20.0993 41.5466 19.754C41.9199 19.3993 42.1066 18.9933 42.1066 18.536C42.1066 18.1627 42.0273 17.85 41.8686 17.598C41.7193 17.3367 41.4579 17.1033 41.0846 16.898C40.7113 16.6927 40.1933 16.492 39.5306 16.296C38.5879 16.0067 37.9019 15.6333 37.4726 15.176C37.0433 14.7093 36.8286 14.126 36.8286 13.426C36.8286 12.978 36.9453 12.5767 37.1786 12.222C37.4119 11.858 37.7526 11.5687 38.2006 11.354C38.6579 11.1393 39.2086 11.032 39.8526 11.032C40.4686 11.032 41.0006 11.1487 41.4486 11.382C41.9059 11.6153 42.2559 11.9373 42.4986 12.348C42.7506 12.7493 42.8766 13.2067 42.8766 13.72L41.8686 13.72C41.8686 13.44 41.7939 13.1647 41.6446 12.894C41.4953 12.614 41.2666 12.3853 40.9586 12.208C40.6599 12.0213 40.2726 11.928 39.7966 11.928C39.2366 11.928 38.7699 12.0633 38.3966 12.334C38.0233 12.5953 37.8366 12.964 37.8366 13.44C37.8366 13.776 37.9113 14.0607 38.0606 14.294C38.2099 14.5273 38.4666 14.742 38.8306 14.938C39.1946 15.1247 39.6939 15.3253 40.3286 15.54C40.9353 15.7453 41.4439 15.974 41.8546 16.226C42.2746 16.4687 42.5873 16.772 42.7926 17.136C43.0073 17.4907 43.1146 17.9387 43.1146 18.48C43.1146 19.0027 42.9746 19.4693 42.6946 19.88C42.4239 20.2813 42.0506 20.5987 41.5746 20.832C41.0986 21.056 40.5479 21.168 39.9226 21.168ZM46.8331 21L46.8331 20.16L49.1291 20.16L49.1291 12.04L46.8331 12.04L46.8331 11.2L52.4051 11.2L52.4051 12.04L50.1091 12.04L50.1091 20.16L52.4051 20.16L52.4051 21L46.8331 21ZM59.3437 21.168C58.6623 21.168 58.0557 20.9673 57.5237 20.566C56.9917 20.1647 56.5717 19.586 56.2637 18.83C55.965 18.074 55.8157 17.164 55.8157 16.1C55.8157 15.036 55.9697 14.126 56.2777 13.37C56.595 12.614 57.0337 12.0353 57.5937 11.634C58.1537 11.2327 58.807 11.032 59.5537 11.032C60.151 11.032 60.6783 11.158 61.1357 11.41C61.6023 11.6527 61.9757 11.998 62.2557 12.446C62.545 12.8847 62.7177 13.4027 62.7737 14L61.6817 14C61.5883 13.4027 61.3597 12.9127 60.9957 12.53C60.641 12.1473 60.1603 11.956 59.5537 11.956C58.723 11.956 58.0603 12.32 57.5657 13.048C57.071 13.776 56.8237 14.7933 56.8237 16.1C56.8237 16.968 56.931 17.7147 57.1457 18.34C57.3697 18.956 57.6777 19.4273 58.0697 19.754C58.4617 20.0807 58.9097 20.244 59.4137 20.244C59.8337 20.244 60.193 20.146 60.4917 19.95C60.7997 19.754 61.0517 19.4927 61.2477 19.166C61.453 18.83 61.607 18.4613 61.7097 18.06C61.8217 17.6493 61.8823 17.234 61.8917 16.814L59.6097 16.814L59.6097 15.946L62.8997 15.946L62.8997 21L62.0037 21L61.9197 19.404L61.8637 19.404C61.6677 19.9453 61.3643 20.3747 60.9537 20.692C60.5523 21.0093 60.0157 21.168 59.3437 21.168ZM65.8482 21L65.8482 11.2L66.9122 11.2L71.5882 19.292L71.5882 11.2L72.5682 11.2L72.5682 21L71.5042 21L66.8282 12.894L66.8282 21L65.8482 21ZM88.8953 21.168C88.2139 21.168 87.6213 21.0373 87.1173 20.776C86.6133 20.5053 86.2259 20.1367 85.9553 19.67C85.6846 19.2033 85.5493 18.662 85.5493 18.046L86.5713 18.046C86.5713 18.4473 86.6599 18.816 86.8373 19.152C87.0146 19.488 87.2759 19.7587 87.6213 19.964C87.9666 20.1693 88.3913 20.272 88.8953 20.272C89.6046 20.272 90.1459 20.0993 90.5193 19.754C90.8926 19.3993 91.0793 18.9933 91.0793 18.536C91.0793 18.1627 90.9999 17.85 90.8413 17.598C90.6919 17.3367 90.4306 17.1033 90.0573 16.898C89.6839 16.6927 89.1659 16.492 88.5033 16.296C87.5606 16.0067 86.8746 15.6333 86.4453 15.176C86.0159 14.7093 85.8013 14.126 85.8013 13.426C85.8013 12.978 85.9179 12.5767 86.1513 12.222C86.3846 11.858 86.7253 11.5687 87.1733 11.354C87.6306 11.1393 88.1813 11.032 88.8253 11.032C89.4413 11.032 89.9733 11.1487 90.4213 11.382C90.8786 11.6153 91.2286 11.9373 91.4713 12.348C91.7233 12.7493 91.8493 13.2067 91.8493 13.72L90.8413 13.72C90.8413 13.44 90.7666 13.1647 90.6173 12.894C90.4679 12.614 90.2393 12.3853 89.9313 12.208C89.6326 12.0213 89.2453 11.928 88.7693 11.928C88.2093 11.928 87.7426 12.0633 87.3693 12.334C86.9959 12.5953 86.8093 12.964 86.8093 13.44C86.8093 13.776 86.8839 14.0607 87.0333 14.294C87.1826 14.5273 87.4393 14.742 87.8033 14.938C88.1673 15.1247 88.6666 15.3253 89.3013 15.54C89.9079 15.7453 90.4166 15.974 90.8273 16.226C91.2473 16.4687 91.5599 16.772 91.7653 17.136C91.9799 17.4907 92.0873 17.9387 92.0873 18.48C92.0873 19.0027 91.9473 19.4693 91.6673 19.88C91.3966 20.2813 91.0233 20.5987 90.5473 20.832C90.0713 21.056 89.5206 21.168 88.8953 21.168ZM98.1018 21L98.1018 17.08L94.9518 11.2L96.0578 11.2L98.5918 16.114L101.126 11.2L102.232 11.2L99.0818 17.08L99.0818 21L98.1018 21ZM108.484 21.168C107.803 21.168 107.21 21.0373 106.706 20.776C106.202 20.5053 105.815 20.1367 105.544 19.67C105.274 19.2033 105.138 18.662 105.138 18.046L106.16 18.046C106.16 18.4473 106.249 18.816 106.426 19.152C106.604 19.488 106.865 19.7587 107.21 19.964C107.556 20.1693 107.98 20.272 108.484 20.272C109.194 20.272 109.735 20.0993 110.108 19.754C110.482 19.3993 110.668 18.9933 110.668 18.536C110.668 18.1627 110.589 17.85 110.43 17.598C110.281 17.3367 110.02 17.1033 109.646 16.898C109.273 16.6927 108.755 16.492 108.092 16.296C107.15 16.0067 106.464 15.6333 106.034 15.176C105.605 14.7093 105.39 14.126 105.39 13.426C105.39 12.978 105.507 12.5767 105.74 12.222C105.974 11.858 106.314 11.5687 106.762 11.354C107.22 11.1393 107.77 11.032 108.414 11.032C109.03 11.032 109.562 11.1487 110.01 11.382C110.468 11.6153 110.818 11.9373 111.06 12.348C111.312 12.7493 111.438 13.2067 111.438 13.72L110.43 13.72C110.43 13.44 110.356 13.1647 110.206 12.894C110.057 12.614 109.828 12.3853 109.52 12.208C109.222 12.0213 108.834 11.928 108.358 11.928C107.798 11.928 107.332 12.0633 106.958 12.334C106.585 12.5953 106.398 12.964 106.398 13.44C106.398 13.776 106.473 14.0607 106.622 14.294C106.772 14.5273 107.028 14.742 107.392 14.938C107.756 15.1247 108.256 15.3253 108.89 15.54C109.497 15.7453 110.006 15.974 110.416 16.226C110.836 16.4687 111.149 16.772 111.354 17.136C111.569 17.4907 111.676 17.9387 111.676 18.48C111.676 19.0027 111.536 19.4693 111.256 19.88C110.986 20.2813 110.612 20.5987 110.136 20.832C109.66 21.056 109.11 21.168 108.484 21.168ZM117.691 21L117.691 12.096L115.059 12.096L115.059 11.2L121.303 11.2L121.303 12.096L118.671 12.096L118.671 21L117.691 21ZM125.021 21L125.021 11.2L131.055 11.2L131.055 12.096L126.001 12.096L126.001 15.624L130.635 15.624L130.635 16.52L126.001 16.52L126.001 20.104L131.055 20.104L131.055 21L125.021 21ZM134.326 21L134.326 11.2L135.39 11.2L137.77 16.016L140.136 11.2L141.214 11.2L141.214 21L140.234 21L140.234 13.118L138.134 17.36L137.406 17.36L135.306 13.132L135.306 21L134.326 21Z" fill="white"/>
<defs>
<linearGradient id="paint0_linear_141_1097" x1="-0.00206671" y1="16.501" x2="157.994" y2="16.501" gradientUnits="userSpaceOnUse">
<stop stop-color="#9403FD"/>
<stop offset="1" stop-color="#00ADFE"/>
</linearGradient>
</defs>
</svg>