<svg width="198" height="33" viewBox="0 0 198 33" fill="none" xmlns="http://www.w3.org/2000/svg">
<rect width="198" height="33" rx="16" fill="#000E33" fill-opacity="0.4"/>
<rect x="0.5" y="0.5" width="197" height="32" rx="15.5" stroke="url(#paint0_linear_141_1095)" stroke-opacity="0.2"/>
<path d="M17.5105 21L17.5105 11.2L20.7305 11.2C21.4865 11.2 22.0978 11.34 22.5645 11.62C23.0312 11.8907 23.3718 12.25 23.5865 12.698C23.8012 13.146 23.9085 13.6313 23.9085 14.154C23.9085 14.6673 23.8012 15.1527 23.5865 15.61C23.3718 16.058 23.0312 16.422 22.5645 16.702C22.0978 16.9727 21.4865 17.108 20.7305 17.108L18.4905 17.108L18.4905 21L17.5105 21ZM18.4905 16.212L20.7305 16.212C21.4492 16.212 21.9905 16.0207 22.3545 15.638C22.7185 15.246 22.9005 14.7513 22.9005 14.154C22.9005 13.5473 22.7185 13.0527 22.3545 12.67C21.9905 12.2873 21.4492 12.096 20.7305 12.096L18.4905 12.096L18.4905 16.212ZM27.445 21L27.445 11.2L30.343 11.2C31.0897 11.2 31.7057 11.326 32.191 11.578C32.6764 11.8207 33.0357 12.1567 33.269 12.586C33.5117 13.006 33.633 13.4913 33.633 14.042C33.633 14.6953 33.465 15.2647 33.129 15.75C32.793 16.2353 32.275 16.5667 31.575 16.744L33.745 21L32.569 21L30.525 16.898C30.469 16.898 30.4084 16.898 30.343 16.898L28.425 16.898L28.425 21L27.445 21ZM28.425 15.988L30.315 15.988C31.1177 15.988 31.701 15.806 32.065 15.442C32.4384 15.0687 32.625 14.602 32.625 14.042C32.625 13.4447 32.443 12.9733 32.079 12.628C31.7244 12.2733 31.1317 12.096 30.301 12.096L28.425 12.096L28.425 15.988ZM40.2355 21.168C39.4515 21.168 38.7749 20.958 38.2055 20.538C37.6455 20.1087 37.2115 19.516 36.9035 18.76C36.6049 17.9947 36.4555 17.108 36.4555 16.1C36.4555 15.1013 36.6049 14.224 36.9035 13.468C37.2115 12.7027 37.6455 12.1053 38.2055 11.676C38.7749 11.2467 39.4515 11.032 40.2355 11.032C41.0289 11.032 41.7055 11.2467 42.2655 11.676C42.8255 12.1053 43.2549 12.7027 43.5535 13.468C43.8615 14.224 44.0155 15.1013 44.0155 16.1C44.0155 17.108 43.8615 17.9947 43.5535 18.76C43.2549 19.516 42.8255 20.1087 42.2655 20.538C41.7055 20.958 41.0289 21.168 40.2355 21.168ZM40.2355 20.244C41.0662 20.244 41.7335 19.8847 42.2375 19.166C42.7509 18.438 43.0075 17.416 43.0075 16.1C43.0075 14.784 42.7509 13.7667 42.2375 13.048C41.7335 12.32 41.0662 11.956 40.2355 11.956C39.4142 11.956 38.7469 12.32 38.2335 13.048C37.7202 13.7667 37.4635 14.784 37.4635 16.1C37.4635 17.416 37.7202 18.438 38.2335 19.166C38.7469 19.8847 39.4142 20.244 40.2355 20.244ZM46.8381 21L46.8381 11.2L48.7001 11.2C49.7921 11.2 50.6881 11.4007 51.3881 11.802C52.0881 12.194 52.6061 12.7587 52.9421 13.496C53.2874 14.224 53.4601 15.092 53.4601 16.1C53.4601 17.108 53.2874 17.9807 52.9421 18.718C52.6061 19.446 52.0881 20.0107 51.3881 20.412C50.6881 20.804 49.7921 21 48.7001 21L46.8381 21ZM47.8181 20.104L48.7001 20.104C49.6241 20.104 50.3567 19.9407 50.8981 19.614C51.4487 19.278 51.8454 18.8113 52.0881 18.214C52.3307 17.6167 52.4521 16.912 52.4521 16.1C52.4521 15.288 52.3307 14.5833 52.0881 13.986C51.8454 13.3793 51.4487 12.9127 50.8981 12.586C50.3567 12.2593 49.6241 12.096 48.7001 12.096L47.8181 12.096L47.8181 20.104ZM59.8246 21.168C59.1806 21.168 58.6019 21.0327 58.0886 20.762C57.5846 20.482 57.1879 20.0667 56.8986 19.516C56.6093 18.9653 56.4646 18.27 56.4646 17.43L56.4646 11.2L57.4446 11.2L57.4446 17.444C57.4446 18.3493 57.6639 19.0493 58.1026 19.544C58.5506 20.0293 59.1293 20.272 59.8386 20.272C60.5479 20.272 61.1173 20.0293 61.5466 19.544C61.9853 19.0493 62.2046 18.3493 62.2046 17.444L62.2046 11.2L63.1846 11.2L63.1846 17.43C63.1846 18.27 63.0399 18.9653 62.7506 19.516C62.4613 20.0667 62.0599 20.482 61.5466 20.762C61.0426 21.0327 60.4686 21.168 59.8246 21.168ZM69.7171 21.168C68.9425 21.168 68.2658 20.9627 67.6871 20.552C67.1178 20.132 66.6791 19.544 66.3711 18.788C66.0631 18.032 65.9091 17.136 65.9091 16.1C65.9091 15.064 66.0631 14.168 66.3711 13.412C66.6791 12.656 67.1178 12.0727 67.6871 11.662C68.2658 11.242 68.9425 11.032 69.7171 11.032C70.6971 11.032 71.4905 11.3027 72.0971 11.844C72.7038 12.3853 73.0631 13.104 73.1751 14L72.0831 14C71.9898 13.4213 71.7378 12.936 71.3271 12.544C70.9258 12.152 70.3891 11.956 69.7171 11.956C68.8585 11.956 68.1771 12.3247 67.6731 13.062C67.1691 13.79 66.9171 14.8027 66.9171 16.1C66.9171 17.3973 67.1691 18.4147 67.6731 19.152C68.1771 19.88 68.8585 20.244 69.7171 20.244C70.4265 20.244 70.9725 20.0573 71.3551 19.684C71.7471 19.3013 71.9898 18.816 72.0831 18.228L73.1751 18.228C73.0258 19.1333 72.6571 19.852 72.0691 20.384C71.4811 20.9067 70.6971 21.168 69.7171 21.168ZM78.9237 21L78.9237 12.096L76.2917 12.096L76.2917 11.2L82.5357 11.2L82.5357 12.096L79.9037 12.096L79.9037 21L78.9237 21ZM95.8107 21L95.8107 11.2L97.6727 11.2C98.7647 11.2 99.6607 11.4007 100.361 11.802C101.061 12.194 101.579 12.7587 101.915 13.496C102.26 14.224 102.433 15.092 102.433 16.1C102.433 17.108 102.26 17.9807 101.915 18.718C101.579 19.446 101.061 20.0107 100.361 20.412C99.6607 20.804 98.7647 21 97.6727 21L95.8107 21ZM96.7907 20.104L97.6727 20.104C98.5967 20.104 99.3294 19.9407 99.8707 19.614C100.421 19.278 100.818 18.8113 101.061 18.214C101.303 17.6167 101.425 16.912 101.425 16.1C101.425 15.288 101.303 14.5833 101.061 13.986C100.818 13.3793 100.421 12.9127 99.8707 12.586C99.3294 12.2593 98.5967 12.096 97.6727 12.096L96.7907 12.096L96.7907 20.104ZM106.011 21L106.011 20.16L108.307 20.16L108.307 12.04L106.011 12.04L106.011 11.2L111.583 11.2L111.583 12.04L109.287 12.04L109.287 20.16L111.583 20.16L111.583 21L106.011 21ZM118.69 21.168C118.008 21.168 117.416 21.0373 116.912 20.776C116.408 20.5053 116.02 20.1367 115.75 19.67C115.479 19.2033 115.344 18.662 115.344 18.046L116.366 18.046C116.366 18.4473 116.454 18.816 116.632 19.152C116.809 19.488 117.07 19.7587 117.416 19.964C117.761 20.1693 118.186 20.272 118.69 20.272C119.399 20.272 119.94 20.0993 120.314 19.754C120.687 19.3993 120.874 18.9933 120.874 18.536C120.874 18.1627 120.794 17.85 120.636 17.598C120.486 17.3367 120.225 17.1033 119.852 16.898C119.478 16.6927 118.96 16.492 118.298 16.296C117.355 16.0067 116.669 15.6333 116.24 15.176C115.81 14.7093 115.596 14.126 115.596 13.426C115.596 12.978 115.712 12.5767 115.946 12.222C116.179 11.858 116.52 11.5687 116.968 11.354C117.425 11.1393 117.976 11.032 118.62 11.032C119.236 11.032 119.768 11.1487 120.216 11.382C120.673 11.6153 121.023 11.9373 121.266 12.348C121.518 12.7493 121.644 13.2067 121.644 13.72L120.636 13.72C120.636 13.44 120.561 13.1647 120.412 12.894C120.262 12.614 120.034 12.3853 119.726 12.208C119.427 12.0213 119.04 11.928 118.564 11.928C118.004 11.928 117.537 12.0633 117.164 12.334C116.79 12.5953 116.604 12.964 116.604 13.44C116.604 13.776 116.678 14.0607 116.828 14.294C116.977 14.5273 117.234 14.742 117.598 14.938C117.962 15.1247 118.461 15.3253 119.096 15.54C119.702 15.7453 120.211 15.974 120.622 16.226C121.042 16.4687 121.354 16.772 121.56 17.136C121.774 17.4907 121.882 17.9387 121.882 18.48C121.882 19.0027 121.742 19.4693 121.462 19.88C121.191 20.2813 120.818 20.5987 120.342 20.832C119.866 21.056 119.315 21.168 118.69 21.168ZM128.484 21.168C127.71 21.168 127.033 20.9627 126.454 20.552C125.885 20.132 125.446 19.544 125.138 18.788C124.83 18.032 124.676 17.136 124.676 16.1C124.676 15.064 124.83 14.168 125.138 13.412C125.446 12.656 125.885 12.0727 126.454 11.662C127.033 11.242 127.71 11.032 128.484 11.032C129.464 11.032 130.258 11.3027 130.864 11.844C131.471 12.3853 131.83 13.104 131.942 14L130.85 14C130.757 13.4213 130.505 12.936 130.094 12.544C129.693 12.152 129.156 11.956 128.484 11.956C127.626 11.956 126.944 12.3247 126.44 13.062C125.936 13.79 125.684 14.8027 125.684 16.1C125.684 17.3973 125.936 18.4147 126.44 19.152C126.944 19.88 127.626 20.244 128.484 20.244C129.194 20.244 129.74 20.0573 130.122 19.684C130.514 19.3013 130.757 18.816 130.85 18.228L131.942 18.228C131.793 19.1333 131.424 19.852 130.836 20.384C130.248 20.9067 129.464 21.168 128.484 21.168ZM138.181 21.168C137.397 21.168 136.72 20.958 136.151 20.538C135.591 20.1087 135.157 19.516 134.849 18.76C134.55 17.9947 134.401 17.108 134.401 16.1C134.401 15.1013 134.55 14.224 134.849 13.468C135.157 12.7027 135.591 12.1053 136.151 11.676C136.72 11.2467 137.397 11.032 138.181 11.032C138.974 11.032 139.651 11.2467 140.211 11.676C140.771 12.1053 141.2 12.7027 141.499 13.468C141.807 14.224 141.961 15.1013 141.961 16.1C141.961 17.108 141.807 17.9947 141.499 18.76C141.2 19.516 140.771 20.1087 140.211 20.538C139.651 20.958 138.974 21.168 138.181 21.168ZM138.181 20.244C139.012 20.244 139.679 19.8847 140.183 19.166C140.696 18.438 140.953 17.416 140.953 16.1C140.953 14.784 140.696 13.7667 140.183 13.048C139.679 12.32 139.012 11.956 138.181 11.956C137.36 11.956 136.692 12.32 136.179 13.048C135.666 13.7667 135.409 14.784 135.409 16.1C135.409 17.416 135.666 18.438 136.179 19.166C136.692 19.8847 137.36 20.244 138.181 20.244ZM147.387 21L144.195 11.2L145.259 11.2L147.975 19.74L150.691 11.2L151.755 11.2L148.563 21L147.387 21ZM154.816 21L154.816 11.2L160.85 11.2L160.85 12.096L155.796 12.096L155.796 15.624L160.43 15.624L160.43 16.52L155.796 16.52L155.796 20.104L160.85 20.104L160.85 21L154.816 21ZM164.568 21L164.568 11.2L167.466 11.2C168.213 11.2 168.829 11.326 169.314 11.578C169.8 11.8207 170.159 12.1567 170.392 12.586C170.635 13.006 170.756 13.4913 170.756 14.042C170.756 14.6953 170.588 15.2647 170.252 15.75C169.916 16.2353 169.398 16.5667 168.698 16.744L170.868 21L169.692 21L167.648 16.898C167.592 16.898 167.532 16.898 167.466 16.898L165.548 16.898L165.548 21L164.568 21ZM165.548 15.988L167.438 15.988C168.241 15.988 168.824 15.806 169.188 15.442C169.562 15.0687 169.748 14.602 169.748 14.042C169.748 13.4447 169.566 12.9733 169.202 12.628C168.848 12.2733 168.255 12.096 167.424 12.096L165.548 12.096L165.548 15.988ZM176.869 21L176.869 17.08L173.719 11.2L174.825 11.2L177.359 16.114L179.893 11.2L180.999 11.2L177.849 17.08L177.849 21L176.869 21Z" fill="white"/>
<defs>
<linearGradient id="paint0_linear_141_1095" x1="-0.00258993" y1="16.501" x2="197.992" y2="16.501" gradientUnits="userSpaceOnUse">
<stop stop-color="#9403FD"/>
<stop offset="1" stop-color="#00ADFE"/>
</linearGradient>
</defs>
</svg>