<svg width="149" height="33" viewBox="0 0 149 33" fill="none" xmlns="http://www.w3.org/2000/svg">
<rect width="149" height="33" rx="16" fill="#000E33" fill-opacity="0.4"/>
<rect x="0.5" y="0.5" width="148" height="32" rx="15.5" stroke="url(#paint0_linear_44_117)" stroke-opacity="0.2"/>
<path d="M20.6328 21.168C19.9888 21.168 19.4101 21.0327 18.8968 20.762C18.3928 20.482 17.9961 20.0667 17.7068 19.516C17.4175 18.9653 17.2728 18.27 17.2728 17.43L17.2728 11.2L18.2528 11.2L18.2528 17.444C18.2528 18.3493 18.4721 19.0493 18.9108 19.544C19.3588 20.0293 19.9375 20.272 20.6468 20.272C21.3561 20.272 21.9255 20.0293 22.3548 19.544C22.7935 19.0493 23.0128 18.3493 23.0128 17.444L23.0128 11.2L23.9928 11.2L23.9928 17.43C23.9928 18.27 23.8481 18.9653 23.5588 19.516C23.2695 20.0667 22.8681 20.482 22.3548 20.762C21.8508 21.0327 21.2768 21.168 20.6328 21.168ZM27.6413 21L27.6413 20.16L29.9373 20.16L29.9373 12.04L27.6413 12.04L27.6413 11.2L33.2133 11.2L33.2133 12.04L30.9173 12.04L30.9173 20.16L33.2133 20.16L33.2133 21L27.6413 21ZM37.2819 22.26L42.1259 10.36L43.1619 10.36L38.3039 22.26L37.2819 22.26ZM50.0164 21.168C49.3724 21.168 48.7937 21.0327 48.2804 20.762C47.7764 20.482 47.3797 20.0667 47.0904 19.516C46.8011 18.9653 46.6564 18.27 46.6564 17.43L46.6564 11.2L47.6364 11.2L47.6364 17.444C47.6364 18.3493 47.8557 19.0493 48.2944 19.544C48.7424 20.0293 49.3211 20.272 50.0304 20.272C50.7397 20.272 51.3091 20.0293 51.7384 19.544C52.1771 19.0493 52.3964 18.3493 52.3964 17.444L52.3964 11.2L53.3764 11.2L53.3764 17.43C53.3764 18.27 53.2317 18.9653 52.9424 19.516C52.6531 20.0667 52.2517 20.482 51.7384 20.762C51.2344 21.0327 50.6604 21.168 50.0164 21.168ZM56.2829 21L59.2509 16.114L56.2829 11.2L57.4029 11.2L59.8389 15.232L62.2189 11.2L63.3389 11.2L60.3709 16.1L63.3249 21L62.2189 21L59.7689 16.968L57.4029 21L56.2829 21ZM76.208 21L76.208 11.2L78.07 11.2C79.162 11.2 80.058 11.4007 80.758 11.802C81.458 12.194 81.976 12.7587 82.312 13.496C82.6573 14.224 82.83 15.092 82.83 16.1C82.83 17.108 82.6573 17.9807 82.312 18.718C81.976 19.446 81.458 20.0107 80.758 20.412C80.058 20.804 79.162 21 78.07 21L76.208 21ZM77.188 20.104L78.07 20.104C78.994 20.104 79.7267 19.9407 80.268 19.614C80.8187 19.278 81.2153 18.8113 81.458 18.214C81.7007 17.6167 81.822 16.912 81.822 16.1C81.822 15.288 81.7007 14.5833 81.458 13.986C81.2153 13.3793 80.8187 12.9127 80.268 12.586C79.7267 12.2593 78.994 12.096 78.07 12.096L77.188 12.096L77.188 20.104ZM86.2405 21L86.2405 11.2L92.2745 11.2L92.2745 12.096L87.2205 12.096L87.2205 15.624L91.8545 15.624L91.8545 16.52L87.2205 16.52L87.2205 20.104L92.2745 20.104L92.2745 21L86.2405 21ZM99.0871 21.168C98.4057 21.168 97.8131 21.0373 97.3091 20.776C96.8051 20.5053 96.4177 20.1367 96.1471 19.67C95.8764 19.2033 95.7411 18.662 95.7411 18.046L96.7631 18.046C96.7631 18.4473 96.8517 18.816 97.0291 19.152C97.2064 19.488 97.4677 19.7587 97.8131 19.964C98.1584 20.1693 98.5831 20.272 99.0871 20.272C99.7964 20.272 100.338 20.0993 100.711 19.754C101.084 19.3993 101.271 18.9933 101.271 18.536C101.271 18.1627 101.192 17.85 101.033 17.598C100.884 17.3367 100.622 17.1033 100.249 16.898C99.8757 16.6927 99.3577 16.492 98.6951 16.296C97.7524 16.0067 97.0664 15.6333 96.6371 15.176C96.2077 14.7093 95.9931 14.126 95.9931 13.426C95.9931 12.978 96.1097 12.5767 96.3431 12.222C96.5764 11.858 96.9171 11.5687 97.3651 11.354C97.8224 11.1393 98.3731 11.032 99.0171 11.032C99.6331 11.032 100.165 11.1487 100.613 11.382C101.07 11.6153 101.42 11.9373 101.663 12.348C101.915 12.7493 102.041 13.2067 102.041 13.72L101.033 13.72C101.033 13.44 100.958 13.1647 100.809 12.894C100.66 12.614 100.431 12.3853 100.123 12.208C99.8244 12.0213 99.4371 11.928 98.9611 11.928C98.4011 11.928 97.9344 12.0633 97.5611 12.334C97.1877 12.5953 97.0011 12.964 97.0011 13.44C97.0011 13.776 97.0757 14.0607 97.2251 14.294C97.3744 14.5273 97.6311 14.742 97.9951 14.938C98.3591 15.1247 98.8584 15.3253 99.4931 15.54C100.1 15.7453 100.608 15.974 101.019 16.226C101.439 16.4687 101.752 16.772 101.957 17.136C102.172 17.4907 102.279 17.9387 102.279 18.48C102.279 19.0027 102.139 19.4693 101.859 19.88C101.588 20.2813 101.215 20.5987 100.739 20.832C100.263 21.056 99.7124 21.168 99.0871 21.168ZM105.998 21L105.998 20.16L108.294 20.16L108.294 12.04L105.998 12.04L105.998 11.2L111.57 11.2L111.57 12.04L109.274 12.04L109.274 20.16L111.57 20.16L111.57 21L105.998 21ZM118.508 21.168C117.827 21.168 117.22 20.9673 116.688 20.566C116.156 20.1647 115.736 19.586 115.428 18.83C115.129 18.074 114.98 17.164 114.98 16.1C114.98 15.036 115.134 14.126 115.442 13.37C115.759 12.614 116.198 12.0353 116.758 11.634C117.318 11.2327 117.971 11.032 118.718 11.032C119.315 11.032 119.843 11.158 120.3 11.41C120.767 11.6527 121.14 11.998 121.42 12.446C121.709 12.8847 121.882 13.4027 121.938 14L120.846 14C120.753 13.4027 120.524 12.9127 120.16 12.53C119.805 12.1473 119.325 11.956 118.718 11.956C117.887 11.956 117.225 12.32 116.73 13.048C116.235 13.776 115.988 14.7933 115.988 16.1C115.988 16.968 116.095 17.7147 116.31 18.34C116.534 18.956 116.842 19.4273 117.234 19.754C117.626 20.0807 118.074 20.244 118.578 20.244C118.998 20.244 119.357 20.146 119.656 19.95C119.964 19.754 120.216 19.4927 120.412 19.166C120.617 18.83 120.771 18.4613 120.874 18.06C120.986 17.6493 121.047 17.234 121.056 16.814L118.774 16.814L118.774 15.946L122.064 15.946L122.064 21L121.168 21L121.084 19.404L121.028 19.404C120.832 19.9453 120.529 20.3747 120.118 20.692C119.717 21.0093 119.18 21.168 118.508 21.168ZM125.013 21L125.013 11.2L126.077 11.2L130.753 19.292L130.753 11.2L131.733 11.2L131.733 21L130.669 21L125.993 12.894L125.993 21L125.013 21Z" fill="white"/>
<defs>
<linearGradient id="paint0_linear_44_117" x1="-0.00194899" y1="16.501" x2="148.994" y2="16.501" gradientUnits="userSpaceOnUse">
<stop stop-color="#9403FD"/>
<stop offset="1" stop-color="#00ADFE"/>
</linearGradient>
</defs>
</svg>